<svg id="Layer_1" data-name="Layer 1" xmlns="http://www.w3.org/2000/svg" viewBox="0 0 902 417.45"><defs><style>.cls-1{fill:none;}.cls-2{fill:#ecb006;}.cls-3{fill:#f4a906;}.cls-4{fill:#efb204;}.cls-5{fill:#f6b100;}.cls-6{fill:#eeb300;}.cls-7{fill:#ecb009;}.cls-8{fill:#efae09;}.cls-9{fill:#f0b006;}.cls-10{fill:#efb201;}.cls-11{fill:#f3b004;}.cls-12{fill:#f0b106;}</style></defs><path class="cls-1" d="M96.13,530.79V113.34h902q0,208.73,0,417.45ZM527.62,290.2l-1.34.3c-1.14-1.84-2.33-3.64-3.4-5.52-14.13-24.88-28.17-49.82-42.48-74.57-1.36-2.35-4.37-4.92-6.72-5a307.18,307.18,0,0,0-32.82-.34c-22.27,1.17-39.07,21.53-37.14,44.29,1.53,18.1,17.89,29.43,33.07,22.93,9.81-4.2,15.74-17.39,11.14-26.71a14.67,14.67,0,0,0-9.32-6.91c-2.32-.45-6.1,2.79-7.88,5.43-2.58,3.85-.27,7.41,2.73,10.22.42.39.52,1.19.89,2.09-3.8,4.09-8,3.59-11.44.26a21.17,21.17,0,0,1-5.64-9.72c-4.17-17.88,11.8-36.51,28.79-34,7.8,1.15,11.71,5,11.78,13.76q.36,48.66,0,97.33c-.06,7.4-2.78,13.52-10.44,15.58-1.23.33-2.08,2.37-3.1,3.61,1.13.86,2.25,2.45,3.39,2.47q14.16.31,28.32,0a4.22,4.22,0,0,0,3.21-2.48c.22-.93-1.14-3.2-2.11-3.44-9.62-2.4-10.61-10.56-10.66-18.89-.17-26.42-.06-52.84,0-79.26,0-1.05.22-2.09.47-4.39,1.92,2.84,3.27,4.56,4.35,6.46,18.15,32,36.21,64.07,54.53,95.94,1.54,2.68,4.9,4.14,7.41,6.17.94-2.95,2.7-5.91,2.71-8.87.19-35.23.07-70.46.16-105.69,0-8.4,1.27-16.29,10-19.84,1.09-.44,1.73-2.18,2.58-3.31-1.08-.91-2.15-2.58-3.25-2.61-9-.23-18-.22-27-.06-1,0-2.75,1.51-2.71,2.21.08,1.29,1,3.26,2,3.62,9.29,3.39,10.09,11.6,10.12,20.24,0,15.07,0,30.13,0,45.2ZM268.22,442.12c69.91.62,125-65.15,122.89-142.85-.89-31.72-11.61-59.93-30.27-84.74-34.28-45.56-94.26-59.47-143.51-34.46-58.75,29.84-87.7,104.51-66.51,170.17C168,403.4,216.17,442.25,268.22,442.12ZM941.89,295.56c2.23-1.46,3.64-2.42,5.09-3.32,10.27-6.39,14.81-17.37,12.72-30.81-1.79-11.48-9-19.36-21.31-20.42-15.15-1.3-30.41-1-45.62-1.23-1.37,0-2.76,1.45-4.14,2.22,1,1.24,1.84,3.18,3.1,3.61,4.31,1.45,5.51,4.77,5.52,9q0,37.56,0,75.1c0,4.39-.93,8.21-5.58,9.81-1.27.43-2.08,2.38-3.11,3.64,1.33.86,2.64,2.45,4,2.48,10.08.21,20.17.19,30.26,0,1.17,0,2.32-1.49,3.48-2.28-.95-1.28-1.7-3.34-2.89-3.7-5.25-1.59-6.27-5.62-6.23-10.68.08-7.65-.21-15.31.15-22.94.11-2.52,1.72-5,2.65-7.42,1.94,1.8,4.61,3.19,5.69,5.46,5.29,11.12,9.91,22.62,15.32,33.67,1.55,3.16,4.64,7,7.5,7.52,6.25,1.16,12.82.51,19.24.29,1.15,0,2.26-1.59,3.38-2.44a19.78,19.78,0,0,0-2.51-3.46c-2.26-2-5.55-3.28-6.92-5.8C955,321.58,948.73,308.93,941.89,295.56ZM607.62,274.18c-1.47,3-2.68,5.84-4.18,8.49-2.41,4.25-10.26,7.16-14.93,4.31-2.07-1.26-3-6-3.25-9.19a208.84,208.84,0,0,1,0-22.24c.09-2.23,1.06-5.55,2.58-6.4,8.31-4.68,23.52,1.11,28.29,10,1.65,3.1,4,5.78,6,8.65.46-3.68,1.37-7.37,1.31-11.05-.24-17.16-.33-17.15-16-17.15-15.45,0-30.9-.07-46.36.1-1.64,0-3.27,1.43-4.91,2.2a47.6,47.6,0,0,1,3.51,4c1.91,2.7,5.2,5.5,5.24,8.32q.64,38.22.07,76.46c0,2.89-3.22,5.8-5.14,8.54a34.31,34.31,0,0,1-3.74,3.89c1.76.9,3.52,2.56,5.29,2.57,19.31.18,38.63.06,57.95.13,3.61,0,5.63-1.49,6.05-5.47.67-6.21,1.59-12.39,2.09-18.62.12-1.45-1-3-1.5-4.54-1.06.95-2.63,1.67-3.1,2.89-5.43,13.88-15.62,18-28.66,17.11-7.55-.52-8.89-1.52-9-9.85-.11-6.95,0-13.91,0-20.86,0-10.79,2.23-13,11.86-10,2.87.87,5.28,4.13,7.48,6.7,1.4,1.64,2,4,3.27,6.63C611.59,303.6,611.42,279.42,607.62,274.18ZM879.14,317.8l-2.51-.88c-.92,1-2.21,1.92-2.72,3.16-5.8,14.33-16.42,18.37-29.95,17.16-4.57-.41-6.68-2.15-6.62-7.13.1-7.88,0-15.76,0-23.64,0-10.48,5.46-14.25,13.94-9,2.48,1.53,3.78,5.29,5.68,8,.82,1.17,1.79,2.22,2.7,3.33.75-1.41,2.1-2.8,2.15-4.25.24-7.17.22-14.36.11-21.54,0-2.75-.56-5.49-.86-8.23l-1.78-.28c-1.51,2.88-2.87,5.87-4.56,8.61-3.49,5.66-9,4.81-14,4.11-1.29-.17-3.16-3-3.21-4.71-.31-9.72-.28-19.46,0-29.19,0-1.53,1.64-3.92,3-4.36,12.14-4,23.21,1.61,28.66,14.09.85,1.95,2.33,3.58,3.52,5.36l2.54-.86c-.67-8.55-1.21-17.11-2.17-25.62-.1-.89-2.67-2-4.15-2.08-4.06-.3-8.15-.15-12.22-.15-14.6,0-29.19-.07-43.78.13-1.54,0-3.07,1.59-4.61,2.44,1.05,1.22,1.89,3.09,3.17,3.53,4.94,1.72,5.8,6.12,5.83,10.51q.27,36.5,0,73c0,4.44-1,8.75-6,10.37-1.26.42-2.1,2.34-3.14,3.58,1.54.88,3.06,2.51,4.6,2.52q29,.27,57.94,0c1.66,0,4.56-1.22,4.76-2.33C877,334.93,878,326.35,879.14,317.8ZM769.78,250c-3.42,7.06-6.67,14-10.11,20.82C748.49,293,737.2,315.14,726,337.31c-3,5.92-2.11,8.44,3.19,8.48,19.53.16,39.06.15,58.59-.13,1.78,0,4.71-2.08,5.08-3.72a172.8,172.8,0,0,0,3-19.84c.16-1.49-1.07-3.14-1.66-4.71-1.24,1-2.89,1.8-3.65,3.15-8.77,15.69-23.9,21.48-40.68,14.91q6.15-12.26,12.21-24.36,15.81-31.45,31.59-62.91c3.47-6.94,2.59-8.48-4.79-8.5-17.38-.07-34.77.08-52.15-.09-4.54-.05-7.31.87-7.43,6.64-.12,5.53-1.2,11-1.52,16.56-.1,1.75.86,3.57,1.34,5.36,1.39-1.1,3.32-1.88,4.09-3.36C741,249.75,752.36,244.86,769.78,250Zm-84.15,42.37h0c0-11.82-.12-23.64,0-35.46.12-8.5,2-10.38,9.39-7.55,4.32,1.66,8,5.6,11.57,9,1.46,1.4,1.63,4.27,2.81,6.15,1,1.52,2.55,2.56,3.86,3.82.59-1.76,1.7-3.51,1.69-5.26-.06-5.55-.68-11.09-.79-16.64-.11-5.34-2.39-7-7.25-6.93-20.6.24-41.21.2-61.82,0-4.57,0-7.35,1-7.31,6.75,0,5.31-.79,10.62-.88,15.93,0,2,.92,4,1.43,6,1.37-1.47,3.28-2.68,4-4.45,3.33-7.75,7.67-13.84,16.23-15.05,4.86-.69,7.1.63,7.06,6.47-.19,24.1-.1,48.21,0,72.31,0,5.83-1.13,10.54-7.21,12.22-1.12.31-1.9,2.09-2.83,3.19,1.28.93,2.56,2.64,3.85,2.67,11,.2,21.89.16,32.84,0,1.15,0,2.27-1.53,3.41-2.35-.81-1.17-1.46-3.14-2.46-3.39-6.9-1.7-7.62-7.34-7.65-13.4C685.58,315.13,685.63,303.77,685.63,292.41ZM536.11,392.16c-5.65-3.29-5.92-11.19.59-15.27,3-1.91,7.54-3,10.76-2,1.76.53,2.91,6,3.13,9.38a160.87,160.87,0,0,1,0,20.83c-.34,5.32-1.63,10.57-2.52,16h15.39c-5.39-6.65-4.78-13.07-2.48-19.91a17.37,17.37,0,0,1,3.82,5.26c4.55,8.37,8.42,17.29,13.8,25,8.2,11.74,26.49,16.1,37.94,9.38,3.13-1.84,5.39-6.09,7-9.77.51-1.14-2-4.47-3.79-5.89-.7-.56-3.1,1.35-4.73,2.13l4.5,6.95c-2.44,1.33-5.29,3.78-8.45,4.42-9.18,1.87-17.34-1.55-23-9.23s-9.76-16.25-14.61-24.42c-2.16-3.63-2.39-6.21,1.53-9.16,4.8-3.61,6.21-9.31,4.52-15.5-1.63-6-5.69-9.53-11.25-9.8-9.19-.45-18.47-.78-27.61.12s-15.12,9.83-13.89,18.39c1,7.26,8.45,12,13.87,8.22,2.05-1.42,3.07-5,3.87-7.84.22-.8-2-2.41-3.12-3.65Zm259,27.42c.89,1.21,1.57,2.09,2.2,3,12.12,18,36.47,25.08,55.31,16,6-2.91,11.9-6.69,13-14.2.58-3.76-.5-9.32-2.88-11.65-1.89-1.87-6.89-.31-10.47.19-2.85.39-6,2.67-8.35,1.9-2.19-.7-3.57-4.35-5.31-6.71,1.8-1.24,3.48-2.79,5.42-3.64,1.74-.76,3.81-.61,5.67-1.13,5.3-1.49,7-4.81,3.85-9.54a15.61,15.61,0,0,0-8.57-6.14c-6.19-1.47-11,2.16-13.67,8.82-3.43,8.47-1.88,18,4,22.83,5.38,4.49,10.76,3.62,16-.56.69-.56,1.41-1.4,2.16-1.46,2.19-.18,5.4-1,6.37.23,1.35,1.67,2.23,6,1.22,7.28-2.9,3.7-6.41,7.8-10.45,9.28-11.5,4.21-23,2.14-33.74-3.51-9.5-5-16.22-12.2-14.42-25.05a39.84,39.84,0,0,0-.06-7.64c-.27-4.72-1.78-9.56-6.44-9.86-4.34-.28-8.95,1.45-13.14,3.16-1.23.5-1.69,3.91-1.92,6.07-.07.67,2.46,2.41,2.63,2.25,1.41-1.36,2.43-3.17,3.79-4.6a39.89,39.89,0,0,1,4.14-3.41c1,1.76,3.35,4.36,2.9,5.14a15.1,15.1,0,0,1-5.86,6c-8.08,4-10.94,8.28-8.72,14.34C781.75,422.5,786.1,423.33,795.08,419.58ZM687.28,391a6.72,6.72,0,0,1-2.53-10.22c2.28-3.21,6.48-6.07,10.13-6.56,4.63-.62,4.46,4.52,4.5,8.22.07,7.64.31,15.31-.07,22.93-.27,5.18-1.48,10.29-2.45,16.6,6.49,0,14.31.11,22.13,0,8.37-.14,10.21-3.17,7-13.69-.69,1.61-1,2.51-1.42,3.29-3.17,5.39-8.26,7.95-13.16,5.31-2.26-1.22-2.69-7.34-3.08-11.33-.23-2.38,1.23-4.95,1.93-7.44,2.35,1.13,4.71,2.24,7.05,3.39.66.33,1.28.77,2.23,1.34V389.69l-9.43,2.87c-.65-3.22-1.35-6.44-1.93-9.68a23.25,23.25,0,0,1,0-2.77c-.36-5.6,3-7.48,6.88-6s7,4.85,10.76,7.6c.08-4,3.41-10.49-3-11.22a149,149,0,0,0-32.08.29c-8.27.86-13.48,10.54-11.36,18.54,1.44,5.46,7.35,8.82,11.69,6,1.84-1.19,3-4.2,3.64-6.63.23-.86-1.94-2.47-3-3.73C690.44,386.76,689.13,388.53,687.28,391Zm-44,30.11-1-2.15c-.81-2.79-2-5.54-2.33-8.39-.5-4.8-.12-9.71-.64-14.51s-3.14-8.1-7.88-8.62-9.74-.09-12.36,5.1c-.82,1.64.23,4.38.42,6.62a46.26,46.26,0,0,0,5-3.35,41.26,41.26,0,0,0,3.88-4.33c1.08,1.28,3.13,2.64,3,3.82-.16,2.14-1.1,4.87-2.6,6.1-2.31,1.89-5.56,2.4-8.07,4.09-5.57,3.78-6.13,13.94-.56,15.21C627.58,422.36,635.54,421.1,643.25,421.1Zm-32.07-8.42c-3.28,1.25-5.38,2.5-7.58,2.8-4.4.58-7.85-1.48-8.55-6.36-.83-5.84,3.92-4,6.65-4.8.81-.24,1.79,0,2.54-.3,2.28-1,6.12-1.9,6.35-3.38a12.39,12.39,0,0,0-2.21-8.78,13.89,13.89,0,0,0-8.2-4.33c-5.52-.8-9.47,2.78-11.86,7.81-3.1,6.52-3.59,13.36,0,19.92,2.61,4.69,6.48,7.49,11.73,7C605.14,421.82,608.93,419.27,611.18,412.68Zm38-40.22c1.33,16.66,2.25,32.45-.68,48.63h11.27c-.68-4.25-1.65-7.76-1.73-11.28-.22-10.39,0-20.79-.1-31.19C657.9,369.29,656.74,368.59,649.2,372.46Zm101.32,25.25c3.44-8.83,1.26-11.74-8.28-10.09-3.16.54-7.43,3.77-8.3,6.75s1.39,7.52,3.25,10.72c1.23,2.12,4.59,2.68,6.21,4.69,1.35,1.65,1.55,4.39,2.25,6.66-2.5-.06-5.22.52-7.42-.4-1.57-.65-2.43-3.3-3.84-5.41-2.89,9.09-1.14,11.56,7.66,11.57,4.86,0,9-1.65,10.61-7.14s-.17-10-4.8-13c-2-1.32-4.42-2.24-6-4-1.12-1.32-1.09-3.77-1.57-5.72,2.07,0,4.44-.68,6.13.18S749.09,395.77,750.52,397.71Zm24.83,21.92c-3.26-3.79-6.48-5.88-6.33-7.64.63-7.78-4.87-17.6,5-21.69-2.67-3.67-5.13-7.06-7.61-10.49l-7.83,9.47c.76,3.94,1.65,6.92,1.85,10,.3,4.82-.45,9.8.39,14.48.52,2.92,2.68,6.87,4.93,7.69C768.42,422.35,772,420.39,775.35,419.63Zm51.39-.29c-3.4-3.76-7.15-6.16-6.92-7.95,1-7.43-5.54-17.76,5.82-20.91l-8.21-10.13-7.78,8.95c.63,3.78,1.44,7.05,1.66,10.36.29,4.38-.5,8.95.35,13.16.66,3.22,2.61,7.72,4.93,8.55C819.43,422.39,823.26,420.17,826.74,419.34Z" transform="translate(-96.13 -113.34)"/><path d="M527.62,290.2V276.66c0-15.07.07-30.13,0-45.2,0-8.64-.83-16.85-10.12-20.24-1-.36-1.91-2.33-2-3.62,0-.7,1.74-2.2,2.71-2.21,9-.16,18-.17,27,.06,1.1,0,2.17,1.7,3.25,2.61-.85,1.13-1.49,2.87-2.58,3.31-8.68,3.55-9.93,11.44-10,19.84-.09,35.23,0,70.46-.16,105.69,0,3-1.77,5.92-2.71,8.87-2.51-2-5.87-3.49-7.41-6.17-18.32-31.87-36.38-63.94-54.53-95.94-1.08-1.9-2.43-3.62-4.35-6.46-.25,2.3-.47,3.34-.47,4.39,0,26.42-.13,52.84,0,79.26.05,8.33,1,16.49,10.66,18.89,1,.24,2.33,2.51,2.11,3.44a4.22,4.22,0,0,1-3.21,2.48q-14.16.27-28.32,0c-1.14,0-2.26-1.61-3.39-2.47,1-1.24,1.87-3.28,3.1-3.61,7.66-2.06,10.38-8.18,10.44-15.58q.36-48.66,0-97.33c-.07-8.79-4-12.61-11.78-13.76-17-2.48-33,16.15-28.79,34a21.17,21.17,0,0,0,5.64,9.72c3.4,3.33,7.64,3.83,11.44-.26-.37-.9-.47-1.7-.89-2.09-3-2.81-5.31-6.37-2.73-10.22,1.78-2.64,5.56-5.88,7.88-5.43a14.67,14.67,0,0,1,9.32,6.91c4.6,9.32-1.33,22.51-11.14,26.71-15.18,6.5-31.54-4.83-33.07-22.93-1.93-22.76,14.87-43.12,37.14-44.29a307.18,307.18,0,0,1,32.82.34c2.35.13,5.36,2.7,6.72,5,14.31,24.75,28.35,49.69,42.48,74.57,1.07,1.88,2.26,3.68,3.4,5.52Z" transform="translate(-96.13 -113.34)"/><path class="cls-2" d="M268.22,442.12c-52.05.13-100.25-38.72-117.4-91.88-21.19-65.66,7.76-140.33,66.51-170.17,49.25-25,109.23-11.1,143.51,34.46,18.66,24.81,29.38,53,30.27,84.74C393.27,377,338.13,442.74,268.22,442.12Zm3.28-7.07c27.22,0,53.46-10.59,74.51-33,37.41-39.82,48-87.58,32-141.62-17.19-57.92-70.55-93.41-126.29-84.2-63.05,10.42-105.63,69.39-101.31,137.3C154.8,383,204.93,434,271.5,435.05Z" transform="translate(-96.13 -113.34)"/><path d="M941.89,295.56c6.84,13.37,13.08,26,19.8,38.36,1.37,2.52,4.66,3.77,6.92,5.8a19.78,19.78,0,0,1,2.51,3.46c-1.12.85-2.23,2.4-3.38,2.44-6.42.22-13,.87-19.24-.29-2.86-.52-6-4.36-7.5-7.52-5.41-11.05-10-22.55-15.32-33.67-1.08-2.27-3.75-3.66-5.69-5.46-.93,2.47-2.54,4.9-2.65,7.42-.36,7.63-.07,15.29-.15,22.94,0,5.06,1,9.09,6.23,10.68,1.19.36,1.94,2.42,2.89,3.7-1.16.79-2.31,2.26-3.48,2.28-10.09.18-20.18.2-30.26,0-1.35,0-2.66-1.62-4-2.48,1-1.26,1.84-3.21,3.11-3.64,4.65-1.6,5.58-5.42,5.58-9.81q.06-37.54,0-75.1c0-4.28-1.21-7.6-5.52-9-1.26-.43-2.08-2.37-3.1-3.61,1.38-.77,2.77-2.23,4.14-2.22,15.21.21,30.47-.07,45.62,1.23,12.36,1.06,19.52,8.94,21.31,20.42,2.09,13.44-2.45,24.42-12.72,30.81C945.53,293.14,944.12,294.1,941.89,295.56Zm-24.65-26.72c0,5.32.12,10.64,0,16-.12,4,1.61,5.19,5,5.3,9.21.28,15.21-4.87,16.29-14.73a59.92,59.92,0,0,0,.14-11.75c-1-10.87-7-16.34-16.89-14.9-1.68.25-4.09,3-4.32,4.89C916.84,258.61,917.24,263.75,917.24,268.84Z" transform="translate(-96.13 -113.34)"/><path d="M607.62,274.18c3.8,5.24,4,29.42.08,35.64-1.23-2.59-1.87-5-3.27-6.63-2.2-2.57-4.61-5.83-7.48-6.7-9.63-2.94-11.85-.76-11.86,10,0,7-.08,13.91,0,20.86.14,8.33,1.48,9.33,9,9.85,13,.88,23.23-3.23,28.66-17.11.47-1.22,2-1.94,3.1-2.89.53,1.52,1.62,3.09,1.5,4.54-.5,6.23-1.42,12.41-2.09,18.62-.42,4-2.44,5.48-6.05,5.47-19.32-.07-38.64.05-57.95-.13-1.77,0-3.53-1.67-5.29-2.57a34.31,34.31,0,0,0,3.74-3.89c1.92-2.74,5.1-5.65,5.14-8.54q.57-38.22-.07-76.46c0-2.82-3.33-5.62-5.24-8.32a47.6,47.6,0,0,0-3.51-4c1.64-.77,3.27-2.18,4.91-2.2,15.46-.17,30.91-.09,46.36-.1,15.69,0,15.78,0,16,17.15.06,3.68-.85,7.37-1.31,11.05-2-2.87-4.33-5.55-6-8.65-4.77-8.94-20-14.73-28.29-10-1.52.85-2.49,4.17-2.58,6.4a208.84,208.84,0,0,0,0,22.24c.2,3.23,1.18,7.93,3.25,9.19,4.67,2.85,12.52-.06,14.93-4.31C604.94,280,606.15,277.2,607.62,274.18Z" transform="translate(-96.13 -113.34)"/><path d="M879.14,317.8c-1.15,8.55-2.14,17.13-3.65,25.6-.2,1.11-3.1,2.32-4.76,2.33q-29,.25-57.94,0c-1.54,0-3.06-1.64-4.6-2.52,1-1.24,1.88-3.16,3.14-3.58,5-1.62,5.95-5.93,6-10.37q.23-36.5,0-73c0-4.39-.89-8.79-5.83-10.51-1.28-.44-2.12-2.31-3.17-3.53,1.54-.85,3.07-2.42,4.61-2.44,14.59-.2,29.18-.13,43.78-.13,4.07,0,8.16-.15,12.22.15,1.48.11,4,1.19,4.15,2.08,1,8.51,1.5,17.07,2.17,25.62l-2.54.86c-1.19-1.78-2.67-3.41-3.52-5.36-5.45-12.48-16.52-18.12-28.66-14.09-1.32.44-2.92,2.83-3,4.36-.27,9.73-.3,19.47,0,29.19.05,1.68,1.92,4.54,3.21,4.71,5,.7,10.51,1.55,14-4.11,1.69-2.74,3-5.73,4.56-8.61l1.78.28c.3,2.74.82,5.48.86,8.23.11,7.18.13,14.37-.11,21.54-.05,1.45-1.4,2.84-2.15,4.25-.91-1.11-1.88-2.16-2.7-3.33-1.9-2.69-3.2-6.45-5.68-8-8.48-5.22-13.94-1.45-13.94,9,0,7.88.08,15.76,0,23.64-.06,5,2,6.72,6.62,7.13,13.53,1.21,24.15-2.83,29.95-17.16.51-1.24,1.8-2.12,2.72-3.16Z" transform="translate(-96.13 -113.34)"/><path d="M769.78,250c-17.42-5.18-28.8-.29-36.6,14.75-.77,1.48-2.7,2.26-4.09,3.36-.48-1.79-1.44-3.61-1.34-5.36.32-5.53,1.4-11,1.52-16.56.12-5.77,2.89-6.69,7.43-6.64,17.38.17,34.77,0,52.15.09,7.38,0,8.26,1.56,4.79,8.5q-15.72,31.49-31.59,62.91-6.09,12.14-12.21,24.36c16.78,6.57,31.91.78,40.68-14.91.76-1.35,2.41-2.12,3.65-3.15.59,1.57,1.82,3.22,1.66,4.71a172.8,172.8,0,0,1-3,19.84c-.37,1.64-3.3,3.69-5.08,3.72-19.53.28-39.06.29-58.59.13-5.3,0-6.18-2.56-3.19-8.48,11.18-22.17,22.47-44.28,33.65-66.45C763.11,264,766.36,257.1,769.78,250Z" transform="translate(-96.13 -113.34)"/><path d="M685.63,292.15c0,11.35,0,22.71,0,34.07,0,6,.75,11.69,7.65,13.4,1,.25,1.65,2.22,2.46,3.39-1.14.82-2.26,2.32-3.41,2.35-11,.19-21.89.23-32.84,0-1.29,0-2.57-1.74-3.85-2.67.93-1.1,1.71-2.87,2.83-3.18,6.08-1.69,7.23-6.4,7.21-12.22-.06-24.11-.15-48.21,0-72.32,0-5.83-2.2-7.15-7.06-6.47-8.56,1.21-12.9,7.31-16.23,15-.76,1.78-2.67,3-4,4.46-.51-2-1.46-4-1.43-6,.09-5.32.91-10.63.88-15.94,0-5.78,2.74-6.78,7.31-6.74,20.61.15,41.22.2,61.82,0,4.86-.06,7.14,1.58,7.25,6.93.11,5.55.73,11.09.79,16.63,0,1.75-1.1,3.51-1.69,5.26-1.31-1.25-2.9-2.3-3.86-3.81-1.18-1.89-1.35-4.75-2.81-6.15-3.57-3.41-7.25-7.34-11.57-9-7.39-2.84-9.27-1-9.39,7.54-.16,11.82,0,23.65,0,35.47Z" transform="translate(-96.13 -113.34)"/><path class="cls-3" d="M536.11,392.16l5.32-6.36c1.11,1.24,3.34,2.85,3.12,3.65-.8,2.83-1.82,6.42-3.87,7.84-5.42,3.76-12.83-1-13.87-8.22-1.23-8.56,4.86-17.5,13.89-18.39s18.42-.57,27.61-.12c5.56.27,9.62,3.81,11.25,9.8,1.69,6.19.28,11.89-4.52,15.5-3.92,2.95-3.69,5.53-1.53,9.16,4.85,8.17,9.06,16.86,14.61,24.42s13.79,11.1,23,9.23c3.16-.64,6-3.09,8.45-4.42L615,427.3c1.63-.78,4-2.69,4.73-2.13,1.76,1.42,4.3,4.75,3.79,5.89-1.64,3.68-3.9,7.93-7,9.77-11.45,6.72-29.74,2.36-37.94-9.38-5.38-7.69-9.25-16.61-13.8-25a17.37,17.37,0,0,0-3.82-5.26c-2.3,6.84-2.91,13.26,2.48,19.91H548.06c.89-5.44,2.18-10.69,2.52-16a160.87,160.87,0,0,0,0-20.83c-.22-3.35-1.37-8.85-3.13-9.38-3.22-1-7.72.08-10.76,2C530.19,381,530.46,388.87,536.11,392.16ZM558.32,387c1.21,2.37,2.22,7.42,4.82,8.7,3.54,1.73,7.75-4.49,7.85-10.46.11-6.13-3.3-11.58-7.5-11.07C556.44,375.05,560.43,381.42,558.32,387Z" transform="translate(-96.13 -113.34)"/><path class="cls-4" d="M795.08,419.58c-9,3.75-13.33,2.92-15.35-2.61-2.22-6.06.64-10.35,8.72-14.34a15.1,15.1,0,0,0,5.86-6c.45-.78-1.86-3.38-2.9-5.14a39.89,39.89,0,0,0-4.14,3.41c-1.36,1.43-2.38,3.24-3.79,4.6-.17.16-2.7-1.58-2.63-2.25.23-2.16.69-5.57,1.92-6.07,4.19-1.71,8.8-3.44,13.14-3.16,4.66.3,6.17,5.14,6.44,9.86a39.84,39.84,0,0,1,.06,7.64c-1.8,12.85,4.92,20.06,14.42,25.05,10.76,5.65,22.24,7.72,33.74,3.51,4-1.48,7.55-5.58,10.45-9.28,1-1.28.13-5.61-1.22-7.28-1-1.2-4.18-.41-6.37-.23-.75.06-1.47.9-2.16,1.46-5.21,4.18-10.59,5-16,.56-5.85-4.88-7.4-14.36-4-22.83,2.7-6.66,7.48-10.29,13.67-8.82a15.61,15.61,0,0,1,8.57,6.14c3.13,4.73,1.45,8.05-3.85,9.54-1.86.52-3.93.37-5.67,1.13-1.94.85-3.62,2.4-5.42,3.64,1.74,2.36,3.12,6,5.31,6.71,2.39.77,5.5-1.51,8.35-1.9,3.58-.5,8.58-2.06,10.47-.19,2.38,2.33,3.46,7.89,2.88,11.65-1.15,7.51-7.06,11.29-13,14.2-18.84,9.11-43.19,2-55.31-16C796.65,421.67,796,420.79,795.08,419.58Zm42.09-20.74,2,2c3.4.13,7.58,1.18,7.62-4.67,0-1.74-2.47-3.5-3.81-5.25Zm-43.59,6.63c-4.39.61-7.12,2.61-6.31,7.44.22,1.3,3,3.4,3.87,3C796,414,794.86,409.9,793.58,405.47Z" transform="translate(-96.13 -113.34)"/><path class="cls-5" d="M687.28,391c1.85-2.46,3.16-4.23,4.48-6,1.08,1.26,3.25,2.87,3,3.73-.65,2.43-1.8,5.44-3.64,6.63-4.34,2.82-10.25-.54-11.69-6-2.12-8,3.09-17.68,11.36-18.54a149,149,0,0,1,32.08-.29c6.36.73,3,7.23,3,11.22-3.76-2.75-7-6.12-10.76-7.6s-7.24.36-6.88,6a23.25,23.25,0,0,0,0,2.77c.58,3.24,1.28,6.46,1.93,9.68l9.43-2.87v13.12c-1-.57-1.57-1-2.23-1.34-2.34-1.15-4.7-2.26-7.05-3.39-.7,2.49-2.16,5.06-1.93,7.44.39,4,.82,10.11,3.08,11.33,4.9,2.64,10,.08,13.16-5.31.45-.78.73-1.68,1.42-3.29,3.18,10.52,1.34,13.55-7,13.69-7.82.13-15.64,0-22.13,0,1-6.31,2.18-11.42,2.45-16.6.38-7.62.14-15.29.07-22.93,0-3.7.13-8.84-4.5-8.22-3.65.49-7.85,3.35-10.13,6.56A6.72,6.72,0,0,0,687.28,391Z" transform="translate(-96.13 -113.34)"/><path class="cls-6" d="M643.25,421.1c-7.71,0-15.67,1.26-23.06-.41-5.57-1.27-5-11.43.56-15.21,2.51-1.69,5.76-2.2,8.07-4.09,1.5-1.23,2.44-4,2.6-6.1.09-1.18-2-2.54-3-3.82a41.26,41.26,0,0,1-3.88,4.33,46.26,46.26,0,0,1-5,3.35c-.19-2.24-1.24-5-.42-6.62,2.62-5.19,7.49-5.63,12.36-5.1s7.35,3.8,7.88,8.62.14,9.71.64,14.51c.3,2.85,1.52,5.6,2.33,8.39Zm-10.52-10,1.74-3.83c-1.79-.52-4.05-2-5.27-1.34a11,11,0,0,0-4.53,5.66c-.33,1,2.1,3,3.28,4.6Z" transform="translate(-96.13 -113.34)"/><path class="cls-7" d="M611.18,412.68c-2.25,6.59-6,9.14-11.08,9.6-5.25.47-9.12-2.33-11.73-7-3.64-6.56-3.15-13.4,0-19.92,2.39-5,6.34-8.61,11.86-7.81a13.89,13.89,0,0,1,8.2,4.33,12.39,12.39,0,0,1,2.21,8.78c-.23,1.48-4.07,2.37-6.35,3.38-.75.33-1.73.06-2.54.3-2.73.8-7.48-1-6.65,4.8.7,4.88,4.15,6.94,8.55,6.36C605.8,415.18,607.9,413.93,611.18,412.68ZM593.62,399c1,1.1,2,2.21,3,3.31l6.81-5.76-4-5.52Z" transform="translate(-96.13 -113.34)"/><path class="cls-8" d="M649.2,372.46c7.54-3.87,8.7-3.17,8.76,6.16.07,10.4-.12,20.8.1,31.19.08,3.52,1.05,7,1.73,11.28H648.52C651.45,404.91,650.53,389.12,649.2,372.46Z" transform="translate(-96.13 -113.34)"/><path class="cls-9" d="M750.52,397.71c-1.43-1.94-2.39-4.36-4-5.21s-4.06-.18-6.13-.18c.48,1.95.45,4.4,1.57,5.72,1.53,1.8,3.93,2.72,6,4,4.63,3,6.44,7.38,4.8,13s-5.75,7.14-10.61,7.14c-8.8,0-10.55-2.48-7.66-11.57,1.41,2.11,2.27,4.76,3.84,5.41,2.2.92,4.92.34,7.42.4-.7-2.27-.9-5-2.25-6.66-1.62-2-5-2.57-6.21-4.69-1.86-3.2-4.12-7.75-3.25-10.72s5.14-6.21,8.3-6.75C751.78,386,754,388.88,750.52,397.71Z" transform="translate(-96.13 -113.34)"/><path class="cls-10" d="M775.35,419.63c-3.4.76-6.93,2.72-9.56,1.77-2.25-.82-4.41-4.77-4.93-7.69-.84-4.68-.09-9.66-.39-14.48-.2-3-1.09-6-1.85-10l7.83-9.47c2.48,3.43,4.94,6.82,7.61,10.49-9.91,4.09-4.41,13.91-5,21.69C768.87,413.75,772.09,415.84,775.35,419.63Z" transform="translate(-96.13 -113.34)"/><path class="cls-11" d="M826.74,419.34c-3.48.83-7.31,3.05-10.15,2-2.32-.83-4.27-5.33-4.93-8.55-.85-4.21-.06-8.78-.35-13.16-.22-3.31-1-6.58-1.66-10.36l7.78-8.95,8.21,10.13c-11.36,3.15-4.85,13.48-5.82,20.91C819.59,413.18,823.34,415.58,826.74,419.34Z" transform="translate(-96.13 -113.34)"/><path class="cls-1" d="M271.5,435.05C204.93,434,154.8,383,150.38,313.53c-4.32-67.91,38.26-126.88,101.31-137.3,55.74-9.21,109.1,26.28,126.29,84.2,16,54,5.44,101.8-32,141.62C325,424.46,298.72,435.06,271.5,435.05Zm46.87-108.52-1.63.38c-1.17-1.87-2.39-3.71-3.5-5.62-18-31-35.91-62.1-54.12-93-1.59-2.7-5-5.64-7.73-5.82a343.81,343.81,0,0,0-36-.71,38.55,38.55,0,0,0-37,41.71c1.11,15.34,12.89,25.76,27,23.88,11.74-1.57,20.46-15.95,15.77-27.28-1.36-3.32-5.58-6.41-9-7.2-2.25-.52-6.27,2.56-7.88,5.18-2.49,4.08-.39,7.91,3.23,10.6.4.31.44,1.18.63,1.73-6.75,5.72-14.57,2.39-17.06-7.09-4.65-17.73,9.09-35.69,26.37-34.46,8.47.6,13.65,5.84,13.68,15.1q.22,59.44,0,118.9c0,8.82-3,15.81-11.63,18.64-1.13.37-1.9,2-2.83,3.08,1.1.87,2.19,2.49,3.31,2.51q15.45.29,30.9,0c1.17,0,2.33-1.5,3.49-2.31-1-1.17-1.95-3.07-3.19-3.38-7.89-2-10.27-8.34-11.25-15.9a37.48,37.48,0,0,1-.21-4.86q0-51.45,0-102.91c0-2.06.43-4.11.87-8,2,3.25,3,4.71,3.91,6.23q36.76,63.3,73.61,126.54c1.16,2,3.75,3,5.68,4.43,1-2.26,2.83-4.51,2.87-6.8.26-14.37.1-28.74.11-43.11,0-29.9,0-59.8.17-89.7,0-8.21,1.65-15.75,10.31-18.79,1.48-.52,2.53-2.46,3.79-3.74-1.65-.71-3.29-2-4.95-2-8.58-.2-17.17-.17-25.75,0-1.84,0-3.67.84-5.89,1.38.82,1.76,1,2.76,1.39,2.88,12.36,3.73,13,14.27,12.93,25.41-.09,22.48,0,45,0,67.45C318.73,322.08,318.49,324.3,318.37,326.53Z" transform="translate(-96.13 -113.34)"/><path class="cls-1" d="M917.24,268.84c0-5.09-.4-10.23.21-15.24.23-1.86,2.64-4.64,4.32-4.89,9.87-1.44,15.93,4,16.89,14.9a59.92,59.92,0,0,1-.14,11.75c-1.08,9.86-7.08,15-16.29,14.73-3.42-.11-5.15-1.34-5-5.3C917.36,279.48,917.24,274.16,917.24,268.84Z" transform="translate(-96.13 -113.34)"/><path class="cls-1" d="M558.32,387c2.11-5.61-1.88-12,5.17-12.83,4.2-.51,7.61,4.94,7.5,11.07-.1,6-4.31,12.19-7.85,10.46C560.54,394.45,559.53,389.4,558.32,387Z" transform="translate(-96.13 -113.34)"/><path class="cls-1" d="M837.17,398.84,843,390.9c1.34,1.75,3.83,3.51,3.81,5.25,0,5.85-4.22,4.8-7.62,4.67Z" transform="translate(-96.13 -113.34)"/><path class="cls-1" d="M793.58,405.47c1.28,4.43,2.45,8.5-2.44,10.49-.87.35-3.65-1.75-3.87-3C786.46,408.08,789.19,406.08,793.58,405.47Z" transform="translate(-96.13 -113.34)"/><path class="cls-1" d="M632.73,411.11,628,416.2c-1.18-1.56-3.61-3.63-3.28-4.6a11,11,0,0,1,4.53-5.66c1.22-.68,3.48.82,5.27,1.34Z" transform="translate(-96.13 -113.34)"/><path class="cls-1" d="M593.62,399l5.8-8,4,5.52-6.81,5.76C595.63,401.16,594.63,400.05,593.62,399Z" transform="translate(-96.13 -113.34)"/><path class="cls-12" d="M318.37,326.53c.12-2.23.36-4.45.36-6.68,0-22.48-.06-45,0-67.45,0-11.14-.57-21.68-12.93-25.41-.4-.12-.57-1.12-1.39-2.88,2.22-.54,4.05-1.35,5.89-1.38,8.58-.13,17.17-.16,25.75,0,1.66,0,3.3,1.31,4.95,2-1.26,1.28-2.31,3.22-3.79,3.74-8.66,3-10.27,10.58-10.31,18.79-.18,29.9-.15,59.8-.17,89.7,0,14.37.15,28.74-.11,43.11,0,2.29-1.87,4.54-2.87,6.8-1.93-1.45-4.52-2.45-5.68-4.43Q281.16,319.33,244.49,256c-.89-1.52-1.87-3-3.91-6.23-.44,3.9-.87,6-.87,8q0,51.45,0,102.91a37.48,37.48,0,0,0,.21,4.86c1,7.56,3.36,13.89,11.25,15.9,1.24.31,2.14,2.21,3.19,3.38-1.16.81-2.32,2.29-3.49,2.31q-15.45.27-30.9,0c-1.12,0-2.21-1.64-3.31-2.51.93-1.06,1.7-2.71,2.83-3.08,8.63-2.83,11.61-9.82,11.63-18.64q.18-59.44,0-118.9c0-9.26-5.21-14.5-13.68-15.1-17.28-1.23-31,16.73-26.37,34.46,2.49,9.48,10.31,12.81,17.06,7.09-.19-.55-.23-1.42-.63-1.73-3.62-2.69-5.72-6.52-3.23-10.6,1.61-2.62,5.63-5.7,7.88-5.18,3.39.79,7.61,3.88,9,7.2,4.69,11.33-4,25.71-15.77,27.28-14.11,1.88-25.89-8.54-27-23.88a38.55,38.55,0,0,1,37-41.71,343.81,343.81,0,0,1,36,.71c2.72.18,6.14,3.12,7.73,5.82,18.21,30.87,36.12,61.95,54.12,93,1.11,1.91,2.33,3.75,3.5,5.62Z" transform="translate(-96.13 -113.34)"/></svg>